<svg xmlns="http://www.w3.org/2000/svg" viewBox="0 0 118.15 56.76"><defs><style>.cls-1{fill:#fff;}</style></defs><title>WhiteP&amp;amp;P</title><g id="Layer_2" data-name="Layer 2"><g id="PRINT"><path class="cls-1" d="M19.14,0a19.16,19.16,0,0,0-19,17,18.6,18.6,0,0,0,0,4.39V25a5.88,5.88,0,0,0,3,5.11,5.59,5.59,0,0,0,.6.3,5.38,5.38,0,0,0,1.45.41V17.26A14.12,14.12,0,1,1,29.61,28.63a14.14,14.14,0,0,1-10.47,4.64H.05v6.57A16.89,16.89,0,0,0,14.66,56.6a15.87,15.87,0,0,0,2.3.16,17.41,17.41,0,0,0,2.72-.22V41h-5V51.56A11.93,11.93,0,0,1,5.07,41V38.78c0-.17,0-.33,0-.49h14A19.5,19.5,0,0,0,22.41,38l.08,0c.33-.05.65-.12,1-.19l.08,0a18.77,18.77,0,0,0,1.85-.54l.13,0c.28-.1.56-.2.84-.32l.15-.06c.27-.11.55-.23.81-.36l.13-.06c.27-.13.55-.27.82-.42s.66-.37,1-.57l.1-.06c.28-.18.56-.36.83-.55l.14-.1.88-.67c.3-.24.6-.5.88-.76l.35-.32A19.15,19.15,0,0,0,19.14,0Z"/><path class="cls-1" d="M19.68,28.21V21.79a5.89,5.89,0,0,0-5-5.83V30.87h5Z"/><path class="cls-1" d="M48.16,2.46H52c3.9,0,6.25,2,6.25,5.41S55.9,13.25,52,13.25H51v3.19H48.16Zm3.78,8.26c2.34,0,3.37-.94,3.37-2.85S54.24,5,51.94,5H51v5.73Z"/><path class="cls-1" d="M68.6,11.63A6.56,6.56,0,0,0,69.1,9h2.59a8.23,8.23,0,0,1-1.38,4.72l2.18,2.7H69.1l-.7-.87a6.57,6.57,0,0,1-3.6,1.05c-3.47,0-5.42-1.73-5.42-4.11,0-2,1-3,3.22-4.13a4.44,4.44,0,0,1-1-2.77c0-1.81,1.37-3.31,3.7-3.31S69,3.59,69,5.54C69,6.88,68.17,8,66.4,8.89ZM63.9,10a2.38,2.38,0,0,0-1.52,2.28c0,1.18.74,1.85,2.42,1.85a4.27,4.27,0,0,0,2-.49Zm2.55-4.48a1,1,0,0,0-1.07-1,1,1,0,0,0-1.11,1.05A2.4,2.4,0,0,0,65,7.17l0,.06C66.08,6.65,66.45,6.16,66.45,5.52Z"/><path class="cls-1" d="M74.38,2.46h3.86c3.91,0,6.25,2,6.25,5.41s-2.37,5.38-6.25,5.38h-1v3.19H74.38Zm3.78,8.26c2.34,0,3.37-.94,3.37-2.85S80.46,5,78.16,5h-.91v5.73Z"/><path class="cls-1" d="M48.16,21.38h4.29c4.3,0,7.36,2.86,7.36,7s-3,7-7.36,7H48.16Zm4.15,11.45c3.1,0,4.52-1.85,4.52-4.46s-1.42-4.46-4.52-4.46H51v8.92Z"/><path class="cls-1" d="M62.23,21.38h9.25v2.53H65.11v4.44h5.61v2.46H65.11v2h6.66v2.52H62.23Z"/><path class="cls-1" d="M73.33,32.6l2.34-1.35A3.15,3.15,0,0,0,78.51,33c1.19,0,1.95-.59,1.95-1.42,0-1-.78-1.33-2.1-1.91l-.72-.3c-2.07-.89-3.45-2-3.45-4.34,0-2.16,1.65-3.8,4.22-3.8a4.25,4.25,0,0,1,4.08,2.3L80.25,25a1.94,1.94,0,0,0-1.84-1.24A1.25,1.25,0,0,0,77,25c0,.86.53,1.21,1.77,1.74l.71.31c2.45,1,3.83,2.12,3.83,4.52,0,2.59-2,4-4.77,4A5.52,5.52,0,0,1,73.33,32.6Z"/><path class="cls-1" d="M85.64,21.38h2.88v14H85.64Z"/><path class="cls-1" d="M91,28.37a6.87,6.87,0,0,1,7.13-7.15,6.29,6.29,0,0,1,5.08,1.93l-2,1.93a3.85,3.85,0,0,0-3.12-1.27c-2.53,0-4.17,2-4.17,4.56A4.35,4.35,0,0,0,98.58,33a6.9,6.9,0,0,0,2.74-.51V30.4H98V27.88h6v6a9.16,9.16,0,0,1-5.37,1.62C94,35.54,91,32.5,91,28.37Z"/><path class="cls-1" d="M110.81,28.86A20.6,20.6,0,0,1,109.15,27a25.23,25.23,0,0,1,.2,2.55v5.85h-2.69V21.26H107l7,6.62a20,20,0,0,1,1.64,1.91s-.19-1.59-.19-2.55V21.38h2.7v14.1h-.29Z"/><path class="cls-1" d="M48.16,40.3H51v7.15h6V40.3h2.88v14H57V50H51v4.25H48.16Z"/><path class="cls-1" d="M62.34,47.29a7.23,7.23,0,1,1,7.23,7.17A7.07,7.07,0,0,1,62.34,47.29Zm11.5,0a4.29,4.29,0,1,0-8.55,0,4.29,4.29,0,1,0,8.55,0Z"/><path class="cls-1" d="M79.19,49.22V40.3h2.87v8.76c0,2,.89,2.81,2.8,2.81s2.75-.78,2.75-2.81V40.3h2.88v8.92c0,3.53-2.45,5.24-5.63,5.24S79.19,52.75,79.19,49.22Z"/><path class="cls-1" d="M92,51.52l2.34-1.36a3.14,3.14,0,0,0,2.84,1.75c1.19,0,2-.59,2-1.42,0-1-.78-1.33-2.1-1.91l-.72-.31c-2.07-.88-3.45-2-3.45-4.33,0-2.16,1.65-3.8,4.22-3.8a4.23,4.23,0,0,1,4.08,2.3L99,43.88a1.94,1.94,0,0,0-1.84-1.24,1.25,1.25,0,0,0-1.38,1.24c0,.86.53,1.21,1.77,1.74l.71.31c2.45,1,3.83,2.12,3.83,4.52,0,2.59-2,4-4.77,4A5.52,5.52,0,0,1,92,51.52Z"/><path class="cls-1" d="M104.28,40.3h9.24v2.53h-6.37v4.44h5.61v2.46h-5.61v2h6.66v2.52h-9.53Z"/></g></g></svg>